<?xml version="1.0" encoding="utf-8"?>
<svg viewBox="0 0 89 106.8" xmlns="http://www.w3.org/2000/svg" xmlns:bx="https://boxy-svg.com">
  <g transform="matrix(0.273654, 0, 0, 0.273654, 3.952111, 0.761924)" bx:origin="0.499999 0.5">
    <path d="M 81.208 0.004 C 79.271 0.065 77.184 0.78 74.818 2.647 C 69.023 0.412 63.402 -0.365 58.375 4.187 C 50.617 3.18 48.092 5.257 46.181 7.683 C 44.477 7.647 33.431 5.931 28.366 13.487 C 15.636 11.981 11.614 20.974 16.172 29.361 C 13.572 33.386 10.878 37.362 16.958 45.035 C 14.807 49.308 16.14 53.944 21.207 59.554 C 19.87 65.562 22.498 69.801 27.212 73.104 C 26.33 81.324 34.75 86.104 37.265 87.808 C 38.231 92.597 40.243 97.117 49.861 99.617 C 51.447 106.755 57.227 107.988 62.825 109.486 C 44.324 120.239 28.459 134.389 28.567 169.102 L 25.857 173.936 C 4.643 186.838 -14.442 228.303 15.402 262.007 C 17.351 272.556 20.622 280.134 23.532 288.52 C 27.886 322.312 56.301 338.136 63.795 340.007 C 74.777 348.373 86.473 356.31 102.302 361.87 C 117.222 377.259 133.388 383.124 149.64 383.114 C 149.879 383.113 150.121 383.117 150.359 383.114 C 166.613 383.124 182.777 377.259 197.698 361.87 C 213.526 356.31 225.223 348.373 236.205 340.007 C 243.7 338.136 272.114 322.312 276.468 288.52 C 279.379 280.134 282.648 272.556 284.598 262.007 C 314.441 228.303 295.357 186.838 274.143 173.936 L 271.433 169.102 C 271.54 134.389 255.675 120.239 237.175 109.486 C 242.772 107.988 248.553 106.755 250.139 99.617 C 259.757 97.117 261.769 92.597 262.735 87.808 C 265.249 86.104 273.67 81.324 272.788 73.104 C 277.502 69.801 280.13 65.562 278.793 59.554 C 283.859 53.944 285.193 49.308 283.042 45.035 C 289.122 37.362 286.428 33.386 283.828 29.361 C 288.386 20.974 284.363 11.981 271.634 13.487 C 266.569 5.931 255.523 7.647 253.819 7.683 C 251.907 5.257 249.383 3.18 241.625 4.187 C 236.597 -0.365 230.977 0.412 225.182 2.647 C 218.298 -2.784 213.741 1.57 208.538 3.216 C 200.201 0.493 198.296 4.223 194.202 5.742 C 185.116 3.822 182.354 8.003 177.993 12.416 L 172.925 12.316 C 159.216 20.395 152.406 36.845 149.992 45.303 C 147.577 36.844 140.781 20.394 127.075 12.316 L 122.006 12.416 C 117.647 8.003 114.884 3.822 105.798 5.742 C 101.704 4.223 99.799 0.493 91.462 3.216 C 88.047 2.136 84.907 -0.11 81.208 0.004 Z" style="fill:#000000"/>
    <path d="M 53.918 35.547 C 90.289 54.299 111.432 69.467 123.016 82.386 C 117.083 106.162 86.137 107.247 74.821 106.58 C 77.139 105.502 79.071 104.21 79.757 102.225 C 76.918 100.207 66.85 102.013 59.821 98.064 C 62.521 97.504 63.784 96.959 65.047 94.967 C 58.407 92.849 51.254 91.024 47.047 87.515 C 49.317 87.543 51.437 88.023 54.402 85.967 C 48.454 82.761 42.107 80.221 37.176 75.321 C 40.251 75.246 43.567 75.291 44.531 74.161 C 39.086 70.788 34.493 67.037 30.692 62.934 C 34.996 63.454 36.813 63.006 37.853 62.257 C 33.738 58.042 28.53 54.483 26.047 49.289 C 29.242 50.39 32.166 50.812 34.272 49.192 C 32.874 46.037 26.883 44.176 23.434 36.805 C 26.797 37.131 30.366 37.539 31.079 36.805 C 29.515 30.441 26.835 26.865 24.208 23.159 C 31.408 23.052 42.315 23.187 41.821 22.579 L 37.369 18.031 C 44.402 16.137 51.597 18.334 56.821 19.966 C 59.166 18.115 56.779 15.775 53.918 13.385 C 59.894 14.183 65.295 15.557 70.176 17.45 C 72.784 15.095 68.483 12.74 66.402 10.385 C 75.635 12.137 79.547 14.598 83.435 17.063 C 86.255 14.359 83.596 12.062 81.692 9.707 C 88.654 12.286 92.24 15.615 96.015 18.901 C 97.295 17.174 99.267 15.908 96.886 11.74 C 101.829 14.589 105.552 17.946 108.306 21.708 C 111.364 19.76 110.128 17.097 110.145 14.643 C 115.281 18.822 118.542 23.269 122.532 27.611 C 123.336 27.026 124.039 25.041 124.661 21.901 C 136.916 33.791 154.233 63.738 129.113 75.612 C 107.745 57.976 82.214 45.161 53.918 35.547 Z" style="fill:#75a928"/>
    <path d="M 246.904 35.547 C 210.533 54.299 189.39 69.467 177.806 82.386 C 183.738 106.162 214.685 107.247 226 106.58 C 223.683 105.502 221.75 104.21 221.065 102.225 C 223.904 100.207 233.972 102.013 241.001 98.064 C 238.301 97.504 237.038 96.959 235.775 94.967 C 242.415 92.849 249.568 91.024 253.775 87.515 C 251.504 87.543 249.385 88.023 246.42 85.967 C 252.367 82.761 258.715 80.221 263.646 75.321 C 260.571 75.246 257.255 75.291 256.291 74.161 C 261.735 70.788 266.328 67.037 270.13 62.934 C 265.827 63.454 264.009 63.006 262.969 62.257 C 267.084 58.042 272.292 54.483 274.775 49.289 C 271.579 50.39 268.656 50.812 266.549 49.192 C 267.947 46.037 273.939 44.176 277.388 36.805 C 274.024 37.131 270.457 37.539 269.742 36.805 C 271.307 30.441 273.986 26.865 276.614 23.159 C 269.415 23.052 258.506 23.187 259.001 22.579 L 263.452 18.031 C 256.42 16.137 249.224 18.334 244.001 19.966 C 241.655 18.115 244.042 15.775 246.904 13.385 C 240.928 14.183 235.527 15.557 230.645 17.45 C 228.038 15.095 232.339 12.74 234.42 10.385 C 225.187 12.137 221.275 14.598 217.388 17.063 C 214.566 14.359 217.226 12.062 219.13 9.707 C 212.167 12.286 208.582 15.615 204.806 18.901 C 203.527 17.174 201.555 15.908 203.935 11.74 C 198.992 14.589 195.27 17.946 192.516 21.708 C 189.458 19.76 190.694 17.097 190.677 14.643 C 185.54 18.822 182.281 23.269 178.29 27.611 C 177.487 27.026 176.782 25.041 176.161 21.901 C 163.906 33.791 146.589 63.738 171.709 75.612 C 193.077 57.976 218.608 45.161 246.904 35.547 Z" style="fill:#75a928"/>
    <path d="M 194.458 277.656 C 194.458 308.582 158.152 327.911 129.108 312.448 C 115.629 305.272 107.325 292.009 107.325 277.656 C 107.325 246.731 143.63 227.402 172.675 242.865 C 186.155 250.042 194.458 263.304 194.458 277.656 Z" style="fill:#bc1142"/>
    <path d="M 146.356 201.361 C 146.474 231.441 108.13 250.241 77.336 235.201 C 63.045 228.221 54.206 215.321 54.151 201.361 C 54.033 171.281 92.377 152.48 123.171 167.52 C 137.462 174.5 146.301 187.4 146.356 201.361 Z" style="fill:#bc1142" transform="matrix(0.551318, -0.834295, 0.834295, 0.551318, -123.012214, 173.987883)"/>
    <path d="M 245.934 199.201 C 246.053 169.12 207.708 150.32 176.914 165.361 C 162.622 172.341 153.785 185.24 153.729 199.201 C 153.61 229.281 191.955 248.081 222.749 233.041 C 237.041 226.061 245.879 213.161 245.934 199.201 Z" style="fill:#bc1142" transform="matrix(-0.551318, -0.834295, 0.834295, -0.551318, 143.810005, 475.742128)"/>
    <path d="M 35.461 182.23 C 54.953 177.008 42.04 262.863 26.182 255.819 C 8.74 241.788 3.121 200.698 35.461 182.23 Z" style="fill:#bc1142"/>
    <path d="M 260.689 181.16 C 241.197 175.937 254.11 261.792 269.967 254.748 C 287.41 240.717 293.029 199.627 260.689 181.16 Z" style="fill:#bc1142"/>
    <path d="M 194.471 117.229 C 228.106 111.55 256.091 131.533 254.964 168.005 C 253.858 181.987 182.081 119.31 194.471 117.229 Z" style="fill:#bc1142"/>
    <path d="M 101.541 116.158 C 67.906 110.479 39.922 130.463 41.048 166.934 C 42.155 180.916 113.931 118.24 101.541 116.158 Z" style="fill:#bc1142"/>
    <path d="M 149.855 107.649 C 129.781 107.127 110.514 122.548 110.468 131.493 C 110.412 142.361 126.34 153.489 149.992 153.771 C 174.145 153.944 189.557 144.864 189.635 133.648 C 189.723 120.94 167.668 107.453 149.855 107.649 Z" style="fill:#bc1142"/>
    <path d="M 151.081 330.518 C 168.583 329.754 192.067 336.156 192.113 344.647 C 192.404 352.894 170.815 371.524 149.919 371.164 C 128.28 372.098 107.06 353.438 107.338 346.97 C 107.014 337.487 133.688 330.083 151.081 330.518 Z" style="fill:#bc1142"/>
    <path d="M 86.435 280.195 C 98.895 295.208 104.576 321.582 94.177 329.357 C 84.339 335.292 60.447 332.848 43.466 308.454 C 32.014 287.984 33.49 267.153 41.531 261.033 C 53.556 253.709 72.134 263.602 86.435 280.195 Z" style="fill:#bc1142"/>
    <path d="M 213.232 275.435 C 199.75 291.227 192.243 320.029 202.079 329.307 C 211.483 336.514 236.727 335.507 255.374 309.633 C 268.914 292.255 264.377 263.234 256.643 255.529 C 245.153 246.643 228.66 258.016 213.232 275.435 Z" style="fill:#bc1142"/>
  </g>
</svg>